<?xml version="1.0" encoding="utf-8"?>
<svg xmlns="http://www.w3.org/2000/svg" xmlns:xlink="http://www.w3.org/1999/xlink" version="1.1">



<!-- <symbol id="burger" viewBox="0 0 500 500">
<path d="M41.9,105fgdgdfgh416.3c23.1,0,41.8-18.7,41.8-41.8s-18.7-41.8-41.8-41.8H41.8C18.7,21.4,0,40.1,0,63.2S18.7,105,41.9,105z"/><path d="M458.2,208.2H41.8C18.7,208.2,0,226.9,0,250s18.7,41.8,41.8,41.8h416.4c23.1,0,41.8-18.7,41.8-41.8S481.4,208.2,458.2,208.2z"/><path d="M458.2,395H41.8C18.7,395,0,413.7,0,436.8c0,23.1,18.7,41.8,41.8,41.8h416.4c23.1,0,41.8-18.7,41.8-41.8C500,413.8,481.4,395,458.2,395z"/>
</symbol>
 -->
</svg>